<svg xmlns="http://www.w3.org/2000/svg" viewBox="0 0 1200 260" fill="#000"><circle cx="197.9" cy="123.0" r="1.7" opacity="0.53"/><circle cx="259.2" cy="135.5" r="2.4" opacity="0.55"/><circle cx="606.1" cy="117.0" r="1.0" opacity="0.47"/><circle cx="702.4" cy="103.3" r="2.4" opacity="0.4"/><circle cx="279.2" cy="98.7" r="4.0" opacity="0.66"/><circle cx="1050.0" cy="107.2" r="1.0" opacity="0.45"/><circle cx="597.1" cy="109.5" r="3.2" opacity="0.47"/><circle cx="185.8" cy="127.2" r="1.0" opacity="0.76"/><circle cx="543.8" cy="138.0" r="1.0" opacity="0.53"/><circle cx="224.3" cy="95.0" r="2.4" opacity="0.4"/><circle cx="936.3" cy="97.8" r="3.2" opacity="0.74"/><circle cx="905.8" cy="129.3" r="1.7" opacity="0.66"/><circle cx="147.0" cy="107.4" r="2.4" opacity="0.38"/><circle cx="1107.8" cy="111.6" r="1.7" opacity="0.47"/><circle cx="541.6" cy="127.4" r="4.0" opacity="0.48"/><circle cx="32.2" cy="80.9" r="2.4" opacity="0.8"/><circle cx="595.2" cy="133.6" r="1.7" opacity="0.67"/><circle cx="266.4" cy="126.9" r="1.7" opacity="0.6"/><circle cx="216.8" cy="100.7" r="1.0" opacity="0.76"/><circle cx="415.9" cy="137.7" r="1.0" opacity="0.33"/><circle cx="78.8" cy="110.8" r="2.4" opacity="0.47"/><circle cx="820.0" cy="132.8" r="3.2" opacity="0.78"/><circle cx="488.4" cy="164.7" r="3.2" opacity="0.59"/><circle cx="1059.8" cy="101.1" r="1.0" opacity="0.41"/><circle cx="1051.4" cy="88.1" r="1.0" opacity="0.7"/><circle cx="928.7" cy="112.5" r="2.4" opacity="0.31"/><circle cx="309.6" cy="113.8" r="1.7" opacity="0.37"/><circle cx="83.3" cy="94.5" r="3.2" opacity="0.79"/><circle cx="895.0" cy="115.2" r="1.0" opacity="0.78"/><circle cx="630.8" cy="147.9" r="1.0" opacity="0.39"/><circle cx="1005.9" cy="119.7" r="3.2" opacity="0.59"/><circle cx="511.3" cy="139.6" r="2.4" opacity="0.44"/><circle cx="641.2" cy="118.7" r="2.4" opacity="0.29"/><circle cx="822.4" cy="148.8" r="1.0" opacity="0.59"/><circle cx="772.6" cy="147.3" r="1.7" opacity="0.41"/><circle cx="486.7" cy="162.8" r="3.2" opacity="0.35"/><circle cx="113.8" cy="88.6" r="1.0" opacity="0.51"/><circle cx="169.0" cy="126.9" r="1.7" opacity="0.35"/><circle cx="646.4" cy="121.6" r="1.7" opacity="0.39"/><circle cx="199.3" cy="99.9" r="1.0" opacity="0.65"/><circle cx="660.0" cy="103.4" r="2.4" opacity="0.73"/><circle cx="929.1" cy="128.2" r="1.0" opacity="0.52"/><circle cx="76.2" cy="108.6" r="1.0" opacity="0.65"/><circle cx="303.5" cy="135.2" r="1.0" opacity="0.3"/><circle cx="466.6" cy="121.9" r="3.2" opacity="0.43"/><circle cx="603.7" cy="137.1" r="3.2" opacity="0.33"/><circle cx="721.4" cy="129.8" r="2.4" opacity="0.78"/><circle cx="372.2" cy="141.1" r="1.7" opacity="0.57"/><circle cx="76.5" cy="110.5" r="4.0" opacity="0.46"/><circle cx="381.7" cy="158.9" r="1.0" opacity="0.32"/><circle cx="88.0" cy="112.3" r="2.4" opacity="0.51"/><circle cx="745.7" cy="98.4" r="1.7" opacity="0.51"/><circle cx="620.9" cy="126.5" r="1.7" opacity="0.4"/><circle cx="58.6" cy="94.8" r="1.0" opacity="0.65"/><circle cx="980.8" cy="119.2" r="1.7" opacity="0.4"/><circle cx="462.5" cy="132.7" r="1.7" opacity="0.78"/><circle cx="102.5" cy="102.0" r="1.7" opacity="0.65"/><circle cx="1068.6" cy="111.9" r="1.7" opacity="0.67"/><circle cx="801.6" cy="145.2" r="1.7" opacity="0.64"/><circle cx="294.4" cy="146.0" r="1.0" opacity="0.6"/><circle cx="989.8" cy="129.5" r="4.0" opacity="0.28"/><circle cx="375.1" cy="118.8" r="1.0" opacity="0.36"/><circle cx="663.9" cy="105.4" r="1.0" opacity="0.77"/><circle cx="890.8" cy="114.7" r="1.0" opacity="0.78"/><circle cx="844.7" cy="103.9" r="1.0" opacity="0.61"/><circle cx="818.0" cy="108.8" r="3.2" opacity="0.45"/><circle cx="305.1" cy="143.3" r="1.0" opacity="0.63"/><circle cx="239.9" cy="123.6" r="1.0" opacity="0.48"/><circle cx="1128.9" cy="94.6" r="1.7" opacity="0.6"/><circle cx="336.8" cy="109.0" r="1.0" opacity="0.42"/><circle cx="226.1" cy="139.5" r="1.0" opacity="0.7"/><circle cx="1121.7" cy="103.5" r="1.0" opacity="0.54"/><circle cx="47.1" cy="99.0" r="2.4" opacity="0.4"/><circle cx="9.1" cy="91.7" r="1.0" opacity="0.44"/><circle cx="544.9" cy="159.8" r="1.0" opacity="0.35"/><circle cx="950.1" cy="127.5" r="1.7" opacity="0.31"/><circle cx="225.1" cy="112.6" r="1.7" opacity="0.4"/><circle cx="962.8" cy="127.0" r="3.2" opacity="0.74"/><circle cx="21.1" cy="94.5" r="1.0" opacity="0.75"/><circle cx="896.3" cy="130.1" r="1.0" opacity="0.31"/><circle cx="978.2" cy="113.9" r="1.7" opacity="0.52"/><circle cx="960.1" cy="102.5" r="1.0" opacity="0.46"/><circle cx="357.6" cy="135.9" r="3.2" opacity="0.32"/><circle cx="81.2" cy="100.4" r="1.7" opacity="0.38"/><circle cx="323.8" cy="102.0" r="1.0" opacity="0.54"/><circle cx="816.9" cy="131.8" r="1.0" opacity="0.33"/><circle cx="1117.0" cy="98.0" r="1.7" opacity="0.64"/><circle cx="873.4" cy="119.6" r="1.0" opacity="0.71"/><circle cx="256.5" cy="97.2" r="1.0" opacity="0.56"/><circle cx="753.9" cy="107.4" r="2.4" opacity="0.54"/><circle cx="194.4" cy="129.9" r="2.4" opacity="0.75"/><circle cx="815.4" cy="106.4" r="2.4" opacity="0.75"/><circle cx="639.9" cy="159.1" r="4.0" opacity="0.48"/><circle cx="1130.2" cy="110.7" r="2.4" opacity="0.29"/><circle cx="422.3" cy="139.0" r="1.7" opacity="0.67"/><circle cx="776.2" cy="105.4" r="3.2" opacity="0.56"/><circle cx="1058.0" cy="89.6" r="4.0" opacity="0.57"/><circle cx="930.7" cy="125.5" r="3.2" opacity="0.47"/><circle cx="99.4" cy="98.9" r="1.0" opacity="0.56"/><circle cx="978.0" cy="102.3" r="1.0" opacity="0.29"/><circle cx="507.5" cy="139.5" r="1.0" opacity="0.63"/><circle cx="253.0" cy="100.4" r="3.2" opacity="0.55"/><circle cx="1074.1" cy="100.8" r="1.0" opacity="0.4"/><circle cx="509.1" cy="143.4" r="2.4" opacity="0.67"/><circle cx="780.9" cy="110.7" r="1.7" opacity="0.48"/><circle cx="587.5" cy="119.3" r="1.7" opacity="0.52"/><circle cx="42.7" cy="105.2" r="1.7" opacity="0.7"/><circle cx="883.9" cy="129.9" r="4.0" opacity="0.48"/><circle cx="472.3" cy="103.1" r="1.7" opacity="0.58"/><circle cx="691.7" cy="162.2" r="1.0" opacity="0.4"/><circle cx="881.0" cy="134.6" r="1.7" opacity="0.31"/><circle cx="444.5" cy="152.9" r="1.7" opacity="0.52"/><circle cx="467.3" cy="141.6" r="1.7" opacity="0.64"/><circle cx="1038.3" cy="114.1" r="1.0" opacity="0.41"/><circle cx="938.3" cy="127.3" r="3.2" opacity="0.38"/><circle cx="1017.2" cy="122.7" r="1.0" opacity="0.44"/><circle cx="760.4" cy="105.4" r="2.4" opacity="0.42"/><circle cx="818.8" cy="110.8" r="1.0" opacity="0.39"/><circle cx="597.1" cy="147.8" r="1.0" opacity="0.64"/><circle cx="402.1" cy="140.0" r="1.0" opacity="0.38"/><circle cx="169.2" cy="91.8" r="1.7" opacity="0.5"/><circle cx="147.9" cy="124.3" r="1.7" opacity="0.29"/><circle cx="869.7" cy="123.8" r="1.7" opacity="0.54"/><circle cx="1154.7" cy="89.7" r="1.7" opacity="0.61"/><circle cx="438.9" cy="123.4" r="2.4" opacity="0.61"/><circle cx="548.3" cy="135.5" r="1.0" opacity="0.69"/><circle cx="23.9" cy="96.7" r="1.7" opacity="0.4"/><circle cx="704.2" cy="135.4" r="1.0" opacity="0.53"/><circle cx="198.1" cy="128.0" r="1.0" opacity="0.45"/><circle cx="258.5" cy="97.8" r="1.0" opacity="0.36"/><circle cx="749.0" cy="148.9" r="1.0" opacity="0.34"/><circle cx="641.4" cy="108.4" r="1.7" opacity="0.68"/><circle cx="243.8" cy="129.0" r="1.7" opacity="0.32"/><circle cx="291.0" cy="128.8" r="1.0" opacity="0.39"/><circle cx="692.1" cy="150.9" r="1.7" opacity="0.63"/><circle cx="10.9" cy="84.9" r="1.0" opacity="0.75"/><circle cx="429.0" cy="149.6" r="1.0" opacity="0.54"/><circle cx="1069.7" cy="111.5" r="1.7" opacity="0.37"/><circle cx="1111.5" cy="81.9" r="3.2" opacity="0.68"/><circle cx="863.6" cy="120.7" r="1.0" opacity="0.46"/><circle cx="796.7" cy="133.6" r="1.0" opacity="0.7"/><circle cx="64.1" cy="90.5" r="1.0" opacity="0.45"/><circle cx="951.5" cy="123.9" r="1.0" opacity="0.44"/><circle cx="134.5" cy="113.4" r="1.7" opacity="0.4"/><circle cx="449.0" cy="155.5" r="1.7" opacity="0.64"/><circle cx="753.2" cy="125.7" r="1.7" opacity="0.47"/><circle cx="238.0" cy="118.3" r="1.0" opacity="0.45"/><circle cx="223.9" cy="136.9" r="1.7" opacity="0.38"/><circle cx="38.1" cy="85.3" r="2.4" opacity="0.46"/><circle cx="800.5" cy="108.1" r="1.7" opacity="0.51"/><circle cx="883.7" cy="118.9" r="1.0" opacity="0.43"/><circle cx="713.1" cy="150.5" r="1.7" opacity="0.53"/><circle cx="394.2" cy="153.8" r="2.4" opacity="0.36"/><circle cx="815.1" cy="138.9" r="1.7" opacity="0.78"/><circle cx="1054.8" cy="91.4" r="4.0" opacity="0.45"/><circle cx="455.8" cy="162.6" r="1.0" opacity="0.49"/><circle cx="751.1" cy="113.6" r="1.0" opacity="0.69"/><circle cx="735.0" cy="143.6" r="2.4" opacity="0.73"/><circle cx="1072.3" cy="113.3" r="4.0" opacity="0.54"/><circle cx="841.9" cy="121.6" r="3.2" opacity="0.62"/><circle cx="516.7" cy="144.9" r="1.0" opacity="0.35"/><circle cx="463.6" cy="111.2" r="1.0" opacity="0.33"/><circle cx="545.2" cy="151.4" r="1.0" opacity="0.61"/><circle cx="133.6" cy="107.1" r="1.0" opacity="0.51"/><circle cx="854.3" cy="114.9" r="1.0" opacity="0.66"/><circle cx="139.0" cy="101.2" r="2.4" opacity="0.71"/><circle cx="1175.3" cy="84.9" r="1.7" opacity="0.44"/><circle cx="842.2" cy="140.5" r="1.0" opacity="0.46"/><circle cx="1123.5" cy="91.0" r="1.7" opacity="0.71"/><circle cx="334.4" cy="142.8" r="1.0" opacity="0.46"/><circle cx="200.3" cy="107.5" r="1.0" opacity="0.29"/><circle cx="963.8" cy="94.2" r="1.7" opacity="0.57"/><circle cx="1019.4" cy="120.5" r="1.7" opacity="0.37"/><circle cx="913.0" cy="93.6" r="3.2" opacity="0.44"/><circle cx="303.3" cy="109.4" r="1.0" opacity="0.69"/><circle cx="1025.9" cy="115.3" r="2.4" opacity="0.41"/><circle cx="385.4" cy="118.9" r="1.7" opacity="0.73"/><circle cx="1195.1" cy="79.1" r="3.2" opacity="0.76"/><circle cx="553.1" cy="146.9" r="2.4" opacity="0.38"/><circle cx="739.0" cy="158.0" r="3.2" opacity="0.75"/><circle cx="101.7" cy="110.7" r="1.7" opacity="0.75"/><circle cx="200.3" cy="116.8" r="1.0" opacity="0.7"/><circle cx="867.1" cy="92.7" r="1.0" opacity="0.35"/><circle cx="762.6" cy="134.7" r="1.0" opacity="0.77"/><circle cx="1158.3" cy="91.6" r="1.7" opacity="0.47"/><circle cx="727.4" cy="122.7" r="1.7" opacity="0.67"/><circle cx="223.7" cy="107.4" r="2.4" opacity="0.4"/><circle cx="82.6" cy="114.9" r="1.0" opacity="0.49"/><circle cx="376.2" cy="116.0" r="1.0" opacity="0.56"/><circle cx="139.3" cy="108.8" r="1.0" opacity="0.32"/><circle cx="242.6" cy="106.2" r="1.0" opacity="0.43"/><circle cx="1004.2" cy="113.7" r="1.7" opacity="0.68"/><circle cx="823.1" cy="111.6" r="1.7" opacity="0.67"/><circle cx="641.2" cy="149.1" r="1.7" opacity="0.76"/><circle cx="316.9" cy="135.1" r="4.0" opacity="0.55"/><circle cx="1086.3" cy="83.6" r="2.4" opacity="0.42"/><circle cx="900.3" cy="111.8" r="1.7" opacity="0.41"/><circle cx="308.4" cy="144.8" r="1.7" opacity="0.61"/><circle cx="138.9" cy="98.9" r="3.2" opacity="0.39"/><circle cx="645.4" cy="145.3" r="1.7" opacity="0.57"/><circle cx="1164.2" cy="101.9" r="1.0" opacity="0.5"/><circle cx="503.6" cy="146.0" r="1.7" opacity="0.42"/><circle cx="830.9" cy="117.8" r="1.0" opacity="0.43"/><circle cx="452.2" cy="114.7" r="1.7" opacity="0.8"/><circle cx="1117.8" cy="101.2" r="2.4" opacity="0.54"/><circle cx="703.9" cy="154.9" r="1.0" opacity="0.47"/><circle cx="448.9" cy="123.4" r="1.7" opacity="0.31"/><circle cx="814.9" cy="149.7" r="1.0" opacity="0.38"/><circle cx="401.6" cy="148.7" r="1.0" opacity="0.68"/><circle cx="207.2" cy="119.8" r="2.4" opacity="0.63"/><circle cx="101.3" cy="119.7" r="2.4" opacity="0.53"/><circle cx="1031.3" cy="108.4" r="1.0" opacity="0.49"/><circle cx="984.9" cy="106.5" r="1.0" opacity="0.37"/><circle cx="223.4" cy="121.2" r="1.7" opacity="0.51"/><circle cx="484.5" cy="163.0" r="1.0" opacity="0.63"/><circle cx="245.5" cy="120.0" r="1.0" opacity="0.34"/><circle cx="404.1" cy="108.4" r="1.0" opacity="0.62"/><circle cx="658.9" cy="151.1" r="1.7" opacity="0.32"/><circle cx="872.8" cy="112.8" r="2.4" opacity="0.79"/><circle cx="629.1" cy="117.4" r="1.0" opacity="0.54"/><circle cx="383.0" cy="106.9" r="1.0" opacity="0.62"/><circle cx="979.2" cy="121.2" r="3.2" opacity="0.7"/><circle cx="493.7" cy="143.3" r="1.0" opacity="0.69"/><circle cx="849.6" cy="106.9" r="1.7" opacity="0.42"/><circle cx="954.1" cy="107.4" r="2.4" opacity="0.76"/><circle cx="933.2" cy="106.8" r="1.0" opacity="0.77"/><circle cx="1085.4" cy="87.3" r="1.0" opacity="0.69"/><circle cx="907.7" cy="103.7" r="1.7" opacity="0.78"/><circle cx="108.3" cy="94.9" r="1.7" opacity="0.75"/><circle cx="1136.2" cy="94.1" r="2.4" opacity="0.79"/></svg>